<?xml version="1.0" encoding="UTF-8"?>
<!DOCTYPE svg PUBLIC "-//W3C//DTD SVG 1.1//EN" "http://www.w3.org/Graphics/SVG/1.1/DTD/svg11.dtd">
<!-- Creator: CorelDRAW 2020 (64-Bit) -->
<svg xmlns="http://www.w3.org/2000/svg" xml:space="preserve" width="102.071mm" height="16.4286mm" version="1.1" style="shape-rendering:geometricPrecision; text-rendering:geometricPrecision; image-rendering:optimizeQuality; fill-rule:evenodd; clip-rule:evenodd"
viewBox="0 0 8179.23 1316.47"
 xmlns:xlink="http://www.w3.org/1999/xlink"
 xmlns:xodm="http://www.corel.com/coreldraw/odm/2003">
 <defs>
  <style type="text/css">
   <![CDATA[
    .fil2 {fill:#FEFEFE}
    .fil0 {fill:white}
    .fil3 {fill:#FEFEFE;fill-rule:nonzero}
    .fil1 {fill:white;fill-rule:nonzero}
   ]]>
  </style>
 </defs>
 <g id="Capa_x0020_1">
  <metadata id="CorelCorpID_0Corel-Layer"/>
  <g id="_2004635364416">
   <g>
    <path class="fil0" d="M7902.71 419.59l3.26 -1.33 1.16 -0.66 0.24 -0.33 0.5 -0.98 0 -198.31 -0.47 -0.91 -0.32 -0.43 -1.08 -0.62 -3.25 -1.31 -5.43 -1.59 -7.5 -1.55 -9.42 -1.23 -11.33 -0.8 -13.73 -0.29 -556.36 0 0 215.81 556.31 0 13.73 -0.3 11.32 -0.82 9.5 -1.25 7.5 -1.54 5.35 -1.58zm65.34 246.02l0 262.89 -0.22 20.2 -0.68 19.82 -1.15 19.12 -1.55 18.53 -2.13 17.85 -2.56 17.22 -3.12 16.57 -3.66 16.09 -4.3 15.47 -4.84 14.82 -5.55 14.3 -6.31 13.83 -7.08 13.13 -7.86 12.56 -8.85 11.92 -9.9 11.29 -10.88 10.27 -11.48 9.23 -12.25 8.4 -12.93 7.53 -13.55 6.76 -14.06 5.95 -14.58 5.25 -15.21 4.62 -15.75 3.9 -16.11 3.35 -16.82 2.82 -17.34 2.24 -17.93 1.71 -18.47 1.22 -19.14 0.75 -19.32 0.22 -652.15 0 -19.5 -0.28 -19.25 -0.71 -18.62 -1.26 -18.05 -1.71 -17.53 -2.32 -16.92 -2.83 -16.34 -3.41 -15.85 -4.01 -15.35 -4.7 -14.7 -5.33 -14.18 -6.08 -13.69 -6.85 -13.02 -7.74 -12.27 -8.44 -11.64 -9.45 -10.94 -10.48 -9.84 -11.39 -8.75 -11.85 -7.86 -12.57 -7.04 -13.11 -6.33 -13.73 -5.56 -14.27 -4.92 -14.86 -4.26 -15.33 -3.73 -15.92 -3.16 -16.54 -2.63 -17.14 -2.09 -17.69 -1.64 -18.33 -1.14 -19.01 -0.69 -19.62 -0.21 -19.99 0 -925.56 318.66 0 0 29.23 -288.57 0 0 896.18 0.2 19.48 0.66 18.92 1.1 18.23 1.57 17.51 1.98 16.82 2.48 16.13 2.96 15.47 3.46 14.78 3.9 14.1 4.47 13.47 5 12.79 5.58 12.15 6.15 11.46 6.78 10.82 7.4 10.06 8.21 9.47 9.04 8.67 9.78 7.93 10.46 7.2 11.21 6.65 11.92 5.96 12.55 5.38 13.16 4.76 13.87 4.26 14.49 3.67 15.11 3.16 15.78 2.64 16.44 2.16 17.08 1.63 17.73 1.2 18.43 0.69 18.91 0.26 651.75 0 18.75 -0.22 18.28 -0.7 17.61 -1.15 16.95 -1.62 16.26 -2.11 15.68 -2.61 14.93 -3.1 14.39 -3.59 13.72 -4.16 13.06 -4.7 12.42 -5.26 11.8 -5.87 11.11 -6.5 10.43 -7.12 9.66 -7.76 8.99 -8.49 8.18 -9.35 7.48 -10.04 6.76 -10.79 6.17 -11.43 5.56 -12.21 4.96 -12.78 4.41 -13.48 3.94 -14.18 3.38 -14.91 2.92 -15.54 2.44 -16.26 2 -16.94 1.5 -17.7 1.11 -18.4 0.64 -19.14 0.23 -19.74 0 -261.47 4.3 -0.05 15.81 -0.56 9.98 -0.63zm-966.8 -604.24l0 976.66 297.74 0 0 -371.05 608.88 0 0 261.19c0,104.86 -17.75,175.64 -53.58,213.04 -35.82,37.03 -103.22,55.73 -202.22,55.73l-651.35 0c-99.71,0 -167.81,-19.08 -204.01,-56.83 -35.84,-38.14 -53.94,-108.54 -53.94,-211.94l0 -866.81 184.14 0 74.35 0z"/>
    <path class="fil1" d="M6926.9 61.38l74.35 0 0 976.66 297.74 0 0 -371.05 608.88 0 0 261.19c0,104.86 -17.75,175.64 -53.58,213.04 -35.82,37.03 -103.22,55.73 -202.22,55.73l-651.35 0c-99.71,0 -167.81,-19.08 -204.01,-56.83 -35.84,-38.14 -53.94,-108.54 -53.94,-211.94l0 -866.81 184.14 0zm980.97 156.61l0 198.31 -0.5 0.98 -0.24 0.33 -1.16 0.66 -3.26 1.33 -5.35 1.58 -7.5 1.54 -9.5 1.25 -11.32 0.82 -13.73 0.3 -556.31 0 0 -215.81 556.36 0 13.73 0.29 11.33 0.8 9.42 1.23 7.5 1.55 5.43 1.59 3.25 1.31 1.08 0.62 0.32 0.43 0.47 0.91z"/>
    <path class="fil0" d="M7853.08 181.89l-583.91 0 0 274.5 583.87 0 14.73 -0.31 12.91 -0.94 11.35 -1.51 9.71 -2 8.01 -2.36 6.31 -2.6 4.74 -2.67 3.37 -2.59 2.77 -2.94 2.73 -3.88 2.6 -4.98 2.36 -6.15 1.98 -7.47 1.54 -8.83 0.99 -10.15 0.35 -11.82 0 -132.08 -0.35 -11.87 -0.99 -10.14 -1.54 -8.86 -1.98 -7.45 -2.36 -6.17 -2.6 -4.95 -2.73 -3.87 -2.8 -2.96 -3.38 -2.63 -4.7 -2.64 -6.31 -2.59 -8.02 -2.36 -9.71 -2 -11.31 -1.5 -12.91 -0.92 -14.74 -0.3zm-821.92 829.68l0 -1011.58 892.18 0 15.31 0.14 14.99 0.54 14.52 0.9 14.09 1.27 13.58 1.62 13.16 2.04 12.73 2.4 12.26 2.84 11.75 3.21 11.37 3.65 10.93 4.11 10.46 4.58 9.94 5.02 9.53 5.53 9.01 6.03 8.84 6.84 14.99 14.17 13.31 16.55 11.11 18.35 8.89 19.99 6.76 21.44 4.71 22.87 2.77 24.18 0.89 25.1 0 214.02 -0.89 24.95 -2.77 24.11 -4.72 22.73 -6.76 21.39 -8.89 19.89 -11.11 18.33 -13.31 16.48 -15.02 14.19 -8.85 6.81 -9.01 6.02 -9.48 5.47 -9.96 5.06 -10.49 4.54 -10.87 4.1 -11.33 3.65 -11.8 3.25 -12.3 2.8 -12.69 2.4 -13.14 2.02 -13.6 1.64 -14.09 1.26 -14.5 0.93 -14.99 0.53 -15.3 0.18 -654.19 0 0 371.45 -238.02 0zm822.22 -858.92l-613.51 0 0 332.98 613.51 0c43.89,0 73.96,-7.4 90.53,-22.47 16.6,-15.08 24.9,-40.92 24.9,-77.54l0 -132.96c0,-36.64 -8.29,-62.48 -24.9,-77.56 -16.57,-15.07 -46.65,-22.46 -90.53,-22.46zm-792.9 829.69l0 -953.11 862.71 0c80.2,0 138.25,14.47 173.51,43.71 35.59,29.23 53.22,76.33 53.22,140.95l0 212.97c0,64.32 -17.63,111.1 -53.22,140.33 -35.27,29.24 -93.31,43.7 -173.51,43.7l-683.33 0 0 371.46 -179.39 0z"/>
   </g>
   <path class="fil2" d="M245.61 45.47l0 724.03 699.34 0 0 -724.03 244.58 0 0 681.11c0,81.51 -18.05,137.11 -53.82,166.48 -36.09,29.65 -105.25,44.35 -207.8,44.35l-666.27 0c-101.86,0 -171.04,-14.7 -207.14,-44.35 -36.45,-29.37 -54.5,-84.97 -54.5,-166.48l0 -681.11 245.61 0zm1930.12 154.37l-552.18 0 0 236.44 552.18 0c42.57,0 71.54,-5.18 87.21,-15.54 15.68,-10.38 23.52,-28.81 23.52,-55.32l0 -95.6c0,-25.92 -7.84,-44.07 -23.52,-54.44 -15.67,-10.36 -44.63,-15.55 -87.21,-15.55zm-793.71 737.57l0 -891.94 902.38 0c83.8,0 144.43,13.53 182.24,40.9 37.47,27.35 56.21,71.42 56.21,131.9l0 199.3c0,60.2 -18.74,103.96 -56.21,131.33 -37.81,27.36 -98.44,40.9 -182.24,40.9l-660.85 0 0 347.61 -241.53 0zm2026.54 -737.57l-552.18 0 0 236.44 552.18 0c42.57,0 71.52,-5.18 87.18,-15.54 15.68,-10.38 23.52,-28.81 23.52,-55.32l0 -95.6c0,-25.92 -7.84,-44.07 -23.52,-54.44 -15.67,-10.36 -44.61,-15.55 -87.18,-15.55zm-793.71 737.57l0 -891.94 902.37 0c83.8,0 144.42,13.53 182.25,40.9 37.46,27.35 56.2,71.42 56.2,131.9l0 199.3c0,60.2 -18.74,103.96 -56.2,131.33 -37.83,27.36 -98.45,40.9 -182.25,40.9l-660.84 0 0 347.61 -241.53 0zm1232.81 0l0 -891.94 1080.22 0 0 151.76 -834.59 0 0 199.3 487.12 0 0 151.78 -487.12 0 0 221.18 844.44 0 0 167.91 -1090.07 0zm2050.4 -737.57l-552.18 0 0 248.25 552.18 0c42.57,0 71.54,-5.18 87.21,-15.55 15.68,-10.38 23.51,-28.81 23.51,-55.31l0 -107.41c0,-25.92 -7.83,-44.07 -23.51,-54.44 -15.67,-10.36 -44.63,-15.55 -87.21,-15.55zm-793.71 737.57l0 -891.94 902.38 0c83.81,0 144.43,13.53 182.24,40.9 37.47,27.35 56.2,71.42 56.2,131.9l0 209.65c0,60.2 -18.73,103.98 -56.2,131.34 -37.81,27.65 -98.43,41.48 -182.24,41.48l-137.64 0 486.8 336.66 -352.22 0 -425.15 -336.66 -232.65 0 0 336.66 -241.53 0z"/>
   <path class="fil3" d="M42.04 1280.94l53.17 0c28.29,0 48.37,-4.7 60.16,-14.17 11.8,-9.4 17.74,-24.98 17.74,-46.71 0,-19.35 -4.91,-34 -14.71,-43.96 -9.81,-9.94 -24.29,-14.95 -43.47,-14.95l-72.89 0 0 119.79zm-41.06 35.53l0 -189.02 113.62 0c32.45,0 57.38,8.12 74.78,24.3 17.44,16.23 26.17,39.26 26.17,69.05 0,17.65 -3.41,33.52 -10.21,47.69 -6.79,14.1 -16.37,25.22 -28.74,33.34 -7.71,5.13 -17.24,8.85 -28.65,11.17 -11.46,2.32 -26.06,3.48 -43.9,3.48l-103.08 0zm289.91 0l0 -189.02 41.07 0 0 189.02 -41.07 0zm284.32 -156.05l-115.66 0 0 40.66 110.13 0c17.35,0 28.98,3.17 35.08,9.46 6.1,6.35 9.12,18.08 9.12,35.3l0 26.01c0,17.09 -3.02,28.88 -9.12,35.16 -6.11,6.29 -17.73,9.46 -35.08,9.46l-109.11 0c-17.28,0 -28.97,-3.17 -35.03,-9.46 -6.1,-6.28 -9.12,-18.07 -9.12,-35.16l0 -5.19 36.28 -8.05 0 22.34 124.9 0 0 -43.23 -110.19 0c-17.16,0 -28.75,-3.17 -34.79,-9.46 -5.99,-6.29 -9.02,-18.01 -9.02,-35.17l0 -20.94c0,-17.16 3.03,-28.88 9.02,-35.23 6.03,-6.28 17.62,-9.46 34.79,-9.46l100.27 0c16.6,0 28.06,3.05 34.34,9.1 6.34,6.1 9.46,16.84 9.46,32.36l0 3.96 -36.27 9.16 0 -21.6zm123.88 156.05l0 -189.02 180.68 0 0 32.23 -139.62 0 0 42.13 81.45 0 0 32.24 -81.45 0 0 46.89 141.35 0 0 35.53 -182.41 0zm257.96 0l0 -189.02 28.06 0 124.33 111.43c4.24,3.65 7.93,7.13 11.19,10.43 3.26,3.3 6.17,6.65 8.85,10.14 -0.65,-10.63 -1.09,-18.13 -1.33,-22.53 -0.22,-4.46 -0.33,-7.8 -0.33,-10.19l0 -99.27 36.95 0 0 189.02 -28.05 0 -129.7 -116.8c-3.08,-2.98 -5.81,-5.62 -8.15,-8.05 -2.34,-2.38 -4.5,-4.82 -6.5,-7.32 0.5,5.86 0.97,11.35 1.25,16.55 0.28,5.18 0.4,9.7 0.4,13.49l0 102.14 -36.97 0zm154.35 -259.73c-2.58,14.05 -6.51,24.24 -11.87,30.65 -5.36,6.4 -12.5,9.64 -21.39,9.64 -1.66,0 -3.49,-0.11 -5.43,-0.42 -2,-0.3 -4.03,-0.85 -6.27,-1.52l-13.85 -4.34c-2.34,-0.67 -4.34,-1.16 -5.94,-1.4 -1.64,-0.24 -3.25,-0.37 -4.79,-0.37 -3.65,0 -6.67,0.97 -9.01,3 -2.34,1.95 -4.11,5 -5.36,9.1l-16.72 0c2.23,-13.13 5.99,-22.96 11.3,-29.44 5.3,-6.52 12.2,-9.76 20.81,-9.76 2.12,0 4.34,0.18 6.68,0.6 2.34,0.43 4.78,1.05 7.36,1.9l14.89 4.46c1.31,0.37 2.68,0.67 4.05,0.86 1.42,0.18 2.9,0.24 4.45,0.24 3.53,0 6.61,-1.1 9.12,-3.35 2.52,-2.27 4.22,-5.55 5.25,-9.83l16.72 0zm139.66 115.34c0,-17.16 3.02,-28.88 9.01,-35.17 5.99,-6.28 17.57,-9.46 34.74,-9.46l129.98 0c17.21,0 28.86,3.17 34.85,9.46 6.03,6.29 9.06,18.01 9.06,35.17l0 99.7c0,17.28 -3.02,29.06 -9.06,35.29 -5.99,6.29 -17.64,9.4 -34.85,9.4l-129.98 0c-17.16,0 -28.74,-3.11 -34.74,-9.4 -5.99,-6.23 -9.01,-18.01 -9.01,-35.29l0 -99.7zm41.06 108.86l135.51 0 0 -119.79 -135.51 0 0 119.79zm561.29 -119.79l-128.33 0 0 119.79 128.33 0 0 -42.13 -67.09 0 0 -32.24 107.12 0 0 65.2c0,17.28 -3.03,29.06 -9.06,35.29 -6,6.29 -17.64,9.4 -34.79,9.4l-121.83 0c-17.16,0 -28.75,-3.11 -34.75,-9.4 -5.97,-6.23 -9,-18.01 -9,-35.29l0 -99.64c0,-17.16 3.03,-28.88 9,-35.23 5.99,-6.28 17.58,-9.46 34.75,-9.46l121.83 0c16.94,0 28.52,3.11 34.67,9.27 6.11,6.23 9.18,17.4 9.18,33.58l0 4.33 -40.03 7.76 0 -21.24zm259.68 -1.1l-92.34 0 0 52.75 92.34 0c7.13,0 11.98,-1.1 14.59,-3.3 2.64,-2.25 3.93,-6.16 3.93,-11.78l0 -22.77c0,-5.51 -1.3,-9.35 -3.93,-11.6 -2.61,-2.2 -7.46,-3.3 -14.59,-3.3zm-132.73 156.42l0 -189.02 150.92 0c14.09,0 24.3,2.87 30.57,8.66 6.34,5.75 9.46,15.02 9.46,27.91l0 44.43c0,12.77 -3.13,22.05 -9.46,27.85 -6.27,5.81 -16.48,8.73 -30.57,8.73l-23.04 0 81.62 71.44 -58.99 0 -71.17 -71.44 -38.95 0 0 71.44 -40.4 0zm319.56 -75.46l77.46 0 -38.17 -76.94 -39.3 76.94zm-79.04 75.46l99.97 -189.02 39.63 0 101.3 189.02 -46.12 0 -21.23 -41.39 -112.03 0 -20.58 41.39 -40.95 0zm96.15 -209.17l34.1 -61.91 37.07 0 -49.27 61.91 -21.9 0zm201.56 209.17l0 -189.02 178.64 0 0 32.97 -137.57 0 0 49.82 74.26 0 0 34.43 -74.26 0 0 71.8 -41.07 0zm229.57 0l0 -189.02 41.06 0 0 189.02 -41.06 0zm279.53 -155.32l-110.87 0 0 119.79 110.87 0 0 -40.66 41.06 9.16 0 22.34c0,17.28 -3.02,29.06 -9.12,35.29 -6.05,6.29 -17.56,9.4 -34.63,9.4l-105.5 0c-17.17,0 -28.76,-3.11 -34.75,-9.4 -5.97,-6.23 -8.99,-18.01 -8.99,-35.29l0 -99.7c0,-17.1 3.02,-28.88 8.99,-35.17 5.99,-6.28 17.58,-9.46 34.75,-9.46l105.5 0c17.07,0 28.58,3.17 34.63,9.46 6.1,6.29 9.12,18.07 9.12,35.17l0 17.95 -41.06 7.03 0 -35.91zm122.11 10.93c0,-17.16 3.04,-28.88 9.01,-35.17 5.99,-6.28 17.57,-9.46 34.75,-9.46l129.98 0c17.21,0 28.86,3.17 34.85,9.46 6.05,6.29 9.07,18.01 9.07,35.17l0 99.7c0,17.28 -3.02,29.06 -9.07,35.29 -5.99,6.29 -17.64,9.4 -34.85,9.4l-129.98 0c-17.18,0 -28.75,-3.11 -34.75,-9.4 -5.97,-6.23 -9.01,-18.01 -9.01,-35.29l0 -99.7zm41.08 108.86l135.51 0 0 -119.79 -135.51 0 0 119.79zm942.89 -120.89l-92.33 0 0 50.19 92.33 0c7.14,0 11.99,-1.11 14.61,-3.29 2.62,-2.2 3.93,-6.17 3.93,-11.79l0 -20.2c0,-5.51 -1.31,-9.35 -3.93,-11.6 -2.62,-2.2 -7.47,-3.3 -14.61,-3.3zm-132.72 156.42l0 -189.02 150.92 0c14.08,0 24.3,2.87 30.58,8.66 6.32,5.75 9.46,15.02 9.46,27.91l0 42.24c0,12.83 -3.14,22.11 -9.46,27.9 -6.27,5.81 -16.5,8.67 -30.58,8.67l-110.53 0 0 73.63 -40.4 0zm289.4 -189.02l0 153.49 117.04 0 0 -153.49 41.06 0 0 144.39c0,17.21 -3.02,28.99 -9.06,35.23 -6,6.29 -17.64,9.4 -34.86,9.4l-111.51 0c-17.05,0 -28.56,-3.11 -34.61,-9.4 -6.11,-6.23 -9.14,-18.01 -9.14,-35.23l0 -144.39 41.07 0zm382.59 30.76l-93.71 0 0 45.06 93.71 0c7.13,0 12.04,-1.03 14.78,-3.05 2.74,-2.03 4.11,-5.57 4.11,-10.56l0 -17.84c0,-4.95 -1.37,-8.43 -4.11,-10.51 -2.73,-2.08 -7.64,-3.11 -14.78,-3.11zm0 76.19l-93.71 0 0 48 93.71 0c7.81,0 13.07,-1.23 15.8,-3.73 2.74,-2.49 4.11,-6.89 4.11,-13.25l0 -14.22c0,-6.35 -1.37,-10.69 -4.11,-13.13 -2.73,-2.44 -7.99,-3.67 -15.8,-3.67zm-134.09 82.06l0 -189.02 151.32 0c13.92,0 24.01,2.92 30.3,8.79 6.21,5.79 9.34,15.14 9.34,27.89l0 23.02c0,9.1 -2.62,16.36 -7.87,21.73 -5.24,5.44 -12.77,8.79 -22.58,10.14 10.16,1.4 18.03,5.31 23.56,11.6 5.52,6.29 8.27,14.54 8.27,24.67l0 24.06c0,12.58 -4.28,21.85 -12.89,27.96 -8.61,6.11 -21.62,9.16 -39.19,9.16l-140.25 0zm271.71 0l0 -189.02 41.08 0 0 153.49 132.44 0 0 35.53 -173.52 0zm233.8 0l0 -189.02 41.06 0 0 189.02 -41.06 0zm279.53 -155.32l-110.87 0 0 119.79 110.87 0 0 -40.66 41.06 9.16 0 22.34c0,17.28 -3.02,29.06 -9.12,35.29 -6.05,6.29 -17.56,9.4 -34.63,9.4l-105.5 0c-17.16,0 -28.76,-3.11 -34.75,-9.4 -5.97,-6.23 -8.99,-18.01 -8.99,-35.29l0 -99.7c0,-17.1 3.02,-28.88 8.99,-35.17 5.99,-6.28 17.59,-9.46 34.75,-9.46l105.5 0c17.07,0 28.58,3.17 34.63,9.46 6.1,6.29 9.12,18.07 9.12,35.17l0 17.95 -41.06 7.03 0 -35.91zm125.87 155.32l0 -189.02 41.08 0 0 189.02 -41.08 0zm172.42 -35.53l53.16 0c28.29,0 48.36,-4.7 60.16,-14.17 11.8,-9.4 17.73,-24.98 17.73,-46.71 0,-19.35 -4.9,-34 -14.71,-43.96 -9.8,-9.94 -24.29,-14.95 -43.45,-14.95l-72.9 0 0 119.79zm-41.06 35.53l0 -189.02 113.61 0c32.46,0 57.38,8.12 74.78,24.3 17.44,16.23 26.17,39.26 26.17,69.05 0,17.65 -3.41,33.52 -10.21,47.69 -6.78,14.1 -16.37,25.22 -28.74,33.34 -7.7,5.13 -17.23,8.85 -28.64,11.17 -11.46,2.32 -26.06,3.48 -43.91,3.48l-103.06 0zm329.09 -75.46l77.44 0 -38.15 -76.94 -39.29 76.94zm-79.06 75.46l99.98 -189.02 39.63 0 101.3 189.02 -46.13 0 -21.23 -41.39 -112.03 0 -20.58 41.39 -40.96 0zm338.79 -35.53l53.17 0c28.27,0 48.36,-4.7 60.16,-14.17 11.8,-9.4 17.74,-24.98 17.74,-46.71 0,-19.35 -4.91,-34 -14.71,-43.96 -9.81,-9.94 -24.3,-14.95 -43.47,-14.95l-72.89 0 0 119.79zm-41.07 35.53l0 -189.02 113.63 0c32.45,0 57.37,8.12 74.76,24.3 17.46,16.23 26.17,39.26 26.17,69.05 0,17.65 -3.41,33.52 -10.21,47.69 -6.78,14.1 -16.36,25.22 -28.73,33.34 -7.72,5.13 -17.23,8.85 -28.64,11.17 -11.46,2.32 -26.08,3.48 -43.91,3.48l-103.08 0zm-2522.25 -32.97l81.91 0 16.36 -15.02 -52.99 -47.2 -45.28 29.86 0 32.36zm9.69 32.97c-17.22,0 -28.9,-3.17 -35.07,-9.46 -6.1,-6.35 -9.18,-18.13 -9.18,-35.29l0 -12.33c0,-8.24 1.31,-14.65 3.93,-19.36 2.61,-4.62 8.61,-9.94 17.97,-15.86l35.87 -23.09c-5.19,-4.76 -9.01,-9.34 -11.4,-13.81 -2.4,-4.46 -3.59,-9.4 -3.59,-14.71l0 -10.61c0,-12.52 3.24,-21.38 9.69,-26.63 6.45,-5.26 17.79,-7.87 34.06,-7.87l35.59 0c17,0 28.56,2.74 34.67,8.23 6.1,5.51 9.18,15.45 9.18,29.86l0 11.48 -31.83 5.74 0 -25.28 -57.82 0 0 13.57 83.15 73.99 40.95 -36.63 23.39 21.62 -40.79 36.14 55.84 50.31 -53.78 0 -29.1 -26.31 -15.68 15.02c-4.68,4.34 -9.12,7.26 -13.29,8.85 -4.17,1.64 -10.83,2.44 -19.96,2.44l-62.8 0z"/>
  </g>
 </g>
</svg>
