<?xml version="1.0" encoding="UTF-8"?>
<!DOCTYPE svg PUBLIC "-//W3C//DTD SVG 1.1//EN" "http://www.w3.org/Graphics/SVG/1.1/DTD/svg11.dtd">
<!-- Creator: CorelDRAW 2020 (64-Bit) -->
<svg xmlns="http://www.w3.org/2000/svg" xml:space="preserve" width="102.423mm" height="16.0842mm" version="1.1" style="shape-rendering:geometricPrecision; text-rendering:geometricPrecision; image-rendering:optimizeQuality; fill-rule:evenodd; clip-rule:evenodd"
viewBox="0 0 8232.73 1292.84"
 xmlns:xlink="http://www.w3.org/1999/xlink"
 xmlns:xodm="http://www.corel.com/coreldraw/odm/2003">
 <defs>
  <style type="text/css">
   <![CDATA[
    .fil0 {fill:black}
    .fil4 {fill:black}
    .fil1 {fill:red}
    .fil2 {fill:white}
    .fil6 {fill:#666666;fill-rule:nonzero}
    .fil3 {fill:red;fill-rule:nonzero}
    .fil5 {fill:white;fill-rule:nonzero}
   ]]>
  </style>
 </defs>
 <g id="Capa_x0020_1">
  <metadata id="CorelCorpID_0Corel-Layer"/>
  <g id="_1966043863488">
   <path class="fil0" d="M246.36 72.07l0 726.25 701.5 0 0 -726.25 245.33 0 0 683.21c0,81.76 -18.1,137.52 -53.98,166.99 -36.2,29.74 -105.57,44.48 -208.43,44.48l-668.32 0c-102.18,0 -171.57,-14.74 -207.77,-44.48 -36.57,-29.47 -54.67,-85.23 -54.67,-166.99l0 -683.21 246.36 0zm1936.07 154.84l-553.88 0 0 237.17 553.88 0c42.71,0 71.76,-5.2 87.47,-15.59 15.74,-10.4 23.59,-28.89 23.59,-55.48l0 -95.89c0,-26 -7.85,-44.21 -23.59,-54.62 -15.71,-10.39 -44.76,-15.59 -87.47,-15.59zm-796.15 739.84l0 -894.68 905.15 0c84.05,0 144.88,13.57 182.81,41.03 37.58,27.43 56.37,71.63 56.37,132.3l0 199.91c0,60.38 -18.79,104.28 -56.37,131.73 -37.93,27.44 -98.75,41.03 -182.81,41.03l-662.88 0 0 348.68 -242.27 0zm2032.77 -739.84l-553.88 0 0 237.17 553.88 0c42.71,0 71.75,-5.2 87.45,-15.59 15.74,-10.4 23.59,-28.89 23.59,-55.48l0 -95.89c0,-26 -7.85,-44.21 -23.59,-54.62 -15.71,-10.39 -44.75,-15.59 -87.45,-15.59zm-796.15 739.84l0 -894.68 905.16 0c84.05,0 144.85,13.57 182.8,41.03 37.59,27.43 56.38,71.63 56.38,132.3l0 199.91c0,60.38 -18.79,104.28 -56.38,131.73 -37.95,27.44 -98.75,41.03 -182.8,41.03l-662.88 0 0 348.68 -242.27 0zm1236.6 0l0 -894.68 1083.54 0 0 152.23 -837.15 0 0 199.91 488.62 0 0 152.25 -488.62 0 0 221.86 847.04 0 0 168.43 -1093.43 0zm2056.71 -739.84l-553.87 0 0 249.02 553.87 0c42.71,0 71.76,-5.21 87.48,-15.59 15.73,-10.41 23.59,-28.9 23.59,-55.48l0 -107.74c0,-26 -7.86,-44.21 -23.59,-54.62 -15.71,-10.39 -44.77,-15.59 -87.48,-15.59zm-796.15 739.84l0 -894.68 905.16 0c84.07,0 144.88,13.57 182.8,41.03 37.59,27.43 56.38,71.63 56.38,132.3l0 210.3c0,60.38 -18.79,104.3 -56.38,131.74 -37.92,27.74 -98.73,41.6 -182.8,41.6l-138.05 0 488.29 337.71 -353.29 0 -426.46 -337.71 -233.36 0 0 337.71 -242.28 0z"/>
   <polygon class="fil1" points="7993.18,31.18 7993.18,957.78 7992.96,978.02 7992.28,997.87 7991.13,1017 7989.57,1035.55 7987.44,1053.42 7984.87,1070.66 7981.75,1087.25 7978.09,1103.36 7973.78,1118.84 7968.94,1133.68 7963.38,1147.99 7957.07,1161.84 7949.98,1174.98 7942.1,1187.55 7933.23,1199.49 7923.34,1210.79 7912.44,1221.06 7900.94,1230.31 7888.67,1238.71 7875.74,1246.26 7862.17,1253.02 7848.09,1258.98 7833.5,1264.23 7818.27,1268.86 7802.5,1272.76 7786.38,1276.12 7769.52,1278.94 7752.18,1281.18 7734.23,1282.89 7715.73,1284.11 7696.58,1284.85 7677.22,1285.07 7024.37,1285.07 7004.86,1284.79 6985.58,1284.07 6966.93,1282.82 6948.86,1281.11 6931.32,1278.79 6914.38,1275.96 6898.02,1272.53 6882.15,1268.52 6866.8,1263.81 6852.08,1258.48 6837.88,1252.39 6824.18,1245.53 6811.13,1237.79 6798.86,1229.33 6787.2,1219.87 6776.26,1209.38 6766.39,1197.99 6757.64,1186.11 6749.77,1173.53 6742.72,1160.4 6736.4,1146.66 6730.83,1132.38 6725.9,1117.49 6721.64,1102.14 6717.9,1086.21 6714.74,1069.64 6712.1,1052.49 6710.02,1034.77 6708.37,1016.42 6707.23,997.4 6706.53,977.75 6706.33,957.76 6706.33,31.18 "/>
   <polygon class="fil2" points="7963.06,60.45 7963.06,957.62 7962.84,977.38 7962.19,996.53 7961.09,1014.95 7959.58,1032.68 7957.58,1049.64 7955.14,1065.91 7952.22,1081.47 7948.83,1096.39 7944.89,1110.59 7940.48,1124.09 7935.51,1136.89 7929.94,1149.11 7923.76,1160.55 7917,1171.33 7909.51,1181.4 7901.32,1190.75 7892.32,1199.26 7882.65,1207.03 7872.21,1214.17 7861.1,1220.66 7849.28,1226.55 7836.84,1231.82 7823.76,1236.51 7810.04,1240.68 7795.62,1244.27 7780.68,1247.37 7764.99,1249.99 7748.71,1252.1 7731.74,1253.72 7714.13,1254.88 7695.81,1255.58 7677.05,1255.8 7024.58,1255.8 7005.65,1255.54 6987.2,1254.85 6969.45,1253.65 6952.36,1252.03 6935.9,1249.86 6920.12,1247.21 6905,1244.05 6890.48,1240.38 6876.59,1236.12 6863.42,1231.34 6850.86,1225.97 6838.94,1219.99 6827.72,1213.33 6817.25,1206.12 6807.46,1198.19 6798.41,1189.51 6790.2,1180.03 6782.79,1169.96 6776,1159.13 6769.84,1147.66 6764.26,1135.5 6759.26,1122.7 6754.78,1109.2 6750.86,1095.09 6747.4,1080.29 6744.45,1064.81 6741.97,1048.66 6739.98,1031.83 6738.41,1014.3 6737.31,996.05 6736.65,977.11 6736.45,957.6 6736.45,60.45 "/>
   <path class="fil3" d="M6950.91 89.71l800.89 0 181.14 0 0 867.75c0,104.98 -17.76,175.84 -53.64,213.27 -35.86,37.07 -103.34,55.8 -202.44,55.8l-652.07 0c-99.81,0 -167.99,-19.1 -204.23,-56.89 -35.87,-38.19 -53.99,-108.67 -53.99,-212.18l0 -867.75 184.34 0z"/>
   <path class="fil2" d="M7922.66 450.91l3.27 -1.33 1.16 -0.65 0.24 -0.34 0.91 -1.75 1.21 -3.12 1.25 -4.73 1.15 -6.5 0.78 -8.09 0.31 -10.43 0 -131.2 -0.31 -10.47 -0.78 -8.07 -1.15 -6.52 -1.25 -4.72 -1.21 -3.13 -0.88 -1.68 -0.31 -0.44 -1.09 -0.61 -3.25 -1.32 -5.43 -1.59 -7.51 -1.55 -9.42 -1.23 -11.36 -0.8 -13.75 -0.29 -556.95 0 0 216.04 556.9 0 13.74 -0.29 11.33 -0.82 9.52 -1.26 7.51 -1.54 5.36 -1.58zm-902.43 619.12l0 -1070.04 926.06 0 15.91 0.14 15.83 0.57 15.41 0.95 14.97 1.36 14.57 1.71 14.23 2.2 13.87 2.6 13.47 3.11 12.97 3.53 12.74 4.06 12.39 4.64 11.94 5.2 11.5 5.78 11.13 6.45 10.67 7.09 10.84 8.34 17.56 16.53 15.89 19.63 13.11 21.59 10.36 23.17 7.75 24.45 5.29 25.6 3.06 26.61 0.96 26.75 0 215.07 -0.96 26.61 -3.06 26.55 -5.32 25.48 -7.74 24.38 -10.37 23.09 -13.13 21.57 -15.86 19.53 -17.6 16.56 -10.85 8.3 -10.67 7.11 -11.04 6.36 -11.54 5.82 -12.02 5.18 -12.25 4.59 -12.67 4.06 -13.1 3.61 -13.55 3.07 -13.79 2.59 -14.18 2.19 -14.6 1.74 -14.97 1.33 -15.34 0.98 -15.83 0.57 -15.92 0.17 -628.05 0 0 371.46 -298.06 0z"/>
   <path class="fil4" d="M7872.98 212.95l-584.54 0 0 274.81 584.51 0 14.74 -0.32 12.93 -0.93 11.36 -1.51 9.73 -1.99 8.01 -2.37 6.32 -2.6 4.76 -2.68 3.37 -2.6 2.77 -2.94 2.75 -3.89 2.6 -4.98 2.36 -6.16 1.98 -7.48 1.54 -8.85 0.98 -10.16 0.35 -11.84 0 -132.22 -0.35 -11.88 -0.98 -10.14 -1.54 -8.87 -1.98 -7.46 -2.36 -6.18 -2.6 -4.96 -2.75 -3.87 -2.8 -2.97 -3.39 -2.62 -4.69 -2.64 -6.33 -2.6 -8.02 -2.36 -9.73 -2.01 -11.33 -1.5 -12.93 -0.92 -14.75 -0.31zm-822.81 830.6l0 -1012.68 893.15 0 15.31 0.14 15.01 0.54 14.54 0.89 14.1 1.29 13.6 1.61 13.17 2.05 12.75 2.4 12.28 2.85 11.75 3.21 11.38 3.66 10.95 4.12 10.46 4.58 9.97 5.02 9.53 5.55 9.03 6.03 8.84 6.85 15.01 14.18 13.34 16.57 11.1 18.38 8.91 20.01 6.77 21.47 4.71 22.88 2.77 24.2 0.89 25.13 0 214.26 -0.89 24.97 -2.77 24.13 -4.73 22.76 -6.77 21.41 -8.91 19.92 -11.12 18.35 -13.32 16.49 -15.02 14.2 -8.87 6.82 -9.02 6.03 -9.49 5.49 -9.98 5.06 -10.49 4.53 -10.89 4.1 -11.35 3.66 -11.82 3.26 -12.31 2.81 -12.71 2.4 -13.16 2.03 -13.62 1.64 -14.1 1.26 -14.51 0.92 -15.01 0.55 -15.32 0.18 -654.9 0 0 371.86 -238.27 0z"/>
   <path class="fil5" d="M7873.28 183.68l-614.17 0 0 333.35 614.17 0c43.94,0 74.05,-7.41 90.64,-22.5 16.62,-15.1 24.93,-40.97 24.93,-77.63l0 -133.09c0,-36.68 -8.3,-62.54 -24.93,-77.65 -16.59,-15.09 -46.69,-22.48 -90.64,-22.48zm-793.77 830.6l0 -954.15 863.66 0c80.28,0 138.4,14.48 173.71,43.76 35.62,29.27 53.27,76.4 53.27,141.1l0 213.2c0,64.39 -17.64,111.22 -53.27,140.49 -35.31,29.27 -93.43,43.73 -173.71,43.73l-684.06 0 0 371.87 -179.59 0z"/>
   <path class="fil6" d="M42.12 1257.19l53.33 0c28.37,0 48.5,-4.72 60.34,-14.21 11.85,-9.43 17.8,-25.05 17.8,-46.85 0,-19.42 -4.93,-34.11 -14.76,-44.1 -9.85,-9.98 -24.38,-15 -43.61,-15l-73.11 0 0 120.15zm-41.19 35.65l0 -189.61 113.97 0c32.55,0 57.55,8.15 74.99,24.38 17.51,16.28 26.26,39.38 26.26,69.26 0,17.71 -3.42,33.63 -10.24,47.84 -6.8,14.14 -16.42,25.29 -28.83,33.44 -7.72,5.14 -17.28,8.87 -28.72,11.2 -11.49,2.32 -26.15,3.49 -44.06,3.49l-103.38 0zm290.79 0l0 -189.61 41.19 0 0 189.61 -41.19 0zm285.2 -156.54l-116.03 0 0 40.78 110.49 0c17.38,0 29.04,3.18 35.17,9.49 6.12,6.37 9.15,18.13 9.15,35.41l0 26.08c0,17.14 -3.03,28.98 -9.15,35.28 -6.13,6.31 -17.8,9.49 -35.17,9.49l-109.45 0c-17.35,0 -29.07,-3.18 -35.13,-9.49 -6.12,-6.3 -9.15,-18.13 -9.15,-35.28l0 -5.2 36.39 -8.08 0 22.4 125.29 0 0 -43.36 -110.53 0c-17.23,0 -28.84,-3.18 -34.91,-9.49 -6,-6.3 -9.03,-18.07 -9.03,-35.28l0 -21c0,-17.23 3.04,-28.97 9.03,-35.34 6.07,-6.3 17.68,-9.49 34.91,-9.49l100.58 0c16.64,0 28.15,3.06 34.44,9.12 6.34,6.12 9.49,16.9 9.49,32.47l0 3.97 -36.39 9.19 0 -21.68zm124.26 156.54l0 -189.61 181.24 0 0 32.34 -140.05 0 0 42.26 81.7 0 0 32.33 -81.7 0 0 47.04 141.77 0 0 35.65 -182.95 0zm258.75 0l0 -189.61 28.16 0 124.71 111.77c4.24,3.67 7.96,7.16 11.22,10.47 3.26,3.31 6.18,6.67 8.87,10.16 -0.63,-10.66 -1.09,-18.18 -1.32,-22.59 -0.23,-4.47 -0.34,-7.83 -0.34,-10.23l0 -99.57 37.08 0 0 189.61 -28.17 0 -130.09 -117.16c-3.09,-3 -5.84,-5.63 -8.18,-8.09 -2.36,-2.38 -4.53,-4.83 -6.53,-7.35 0.52,5.88 0.98,11.4 1.25,16.6 0.3,5.2 0.41,9.73 0.41,13.54l0 102.45 -37.08 0zm154.83 -260.53c-2.6,14.08 -6.54,24.31 -11.9,30.75 -5.39,6.42 -12.52,9.67 -21.46,9.67 -1.65,0 -3.49,-0.11 -5.43,-0.43 -2,-0.3 -4.06,-0.84 -6.29,-1.52l-13.89 -4.36c-2.35,-0.67 -4.36,-1.17 -5.96,-1.41 -1.66,-0.24 -3.26,-0.37 -4.81,-0.37 -3.67,0 -6.69,0.98 -9.03,3.01 -2.35,1.95 -4.12,5.01 -5.38,9.12l-16.77 0c2.22,-13.17 6,-23.04 11.33,-29.53 5.31,-6.55 12.23,-9.8 20.87,-9.8 2.12,0 4.35,0.19 6.7,0.61 2.36,0.43 4.8,1.05 7.38,1.9l14.93 4.47c1.3,0.36 2.68,0.67 4.06,0.86 1.42,0.18 2.92,0.24 4.45,0.24 3.55,0 6.64,-1.1 9.15,-3.36 2.52,-2.27 4.25,-5.57 5.26,-9.86l16.78 0zm140.1 115.69c0,-17.21 3.03,-28.97 9.03,-35.28 6,-6.3 17.63,-9.49 34.84,-9.49l130.38 0c17.27,0 28.94,3.19 34.95,9.49 6.06,6.31 9.1,18.07 9.1,35.28l0 100c0,17.34 -3.04,29.15 -9.1,35.41 -6,6.31 -17.68,9.43 -34.95,9.43l-130.38 0c-17.22,0 -28.84,-3.12 -34.84,-9.43 -6,-6.25 -9.03,-18.07 -9.03,-35.41l0 -100zm41.19 109.19l135.93 0 0 -120.15 -135.93 0 0 120.15zm563 -120.15l-128.72 0 0 120.15 128.72 0 0 -42.26 -67.28 0 0 -32.33 107.44 0 0 65.4c0,17.34 -3.03,29.15 -9.08,35.41 -6.02,6.31 -17.69,9.43 -34.91,9.43l-122.2 0c-17.22,0 -28.83,-3.12 -34.84,-9.43 -6,-6.25 -9.03,-18.07 -9.03,-35.41l0 -99.94c0,-17.23 3.03,-28.97 9.03,-35.34 6.01,-6.3 17.63,-9.49 34.84,-9.49l122.2 0c16.99,0 28.62,3.13 34.78,9.3 6.12,6.26 9.21,17.47 9.21,33.7l0 4.34 -40.17 7.77 0 -21.3zm260.48 -1.1l-92.61 0 0 52.91 92.61 0c7.15,0 12.02,-1.11 14.66,-3.31 2.62,-2.26 3.94,-6.18 3.94,-11.82l0 -22.84c0,-5.52 -1.32,-9.37 -3.94,-11.63 -2.64,-2.21 -7.51,-3.31 -14.66,-3.31zm-133.12 156.9l0 -189.61 151.39 0c14.12,0 24.36,2.89 30.66,8.7 6.36,5.76 9.5,15.06 9.5,27.99l0 44.58c0,12.8 -3.14,22.12 -9.5,27.93 -6.29,5.82 -16.53,8.75 -30.66,8.75l-23.13 0 81.87 71.66 -59.16 0 -71.39 -71.66 -39.07 0 0 71.66 -40.52 0zm320.55 -75.69l77.69 0 -38.27 -77.17 -39.42 77.17zm-79.29 75.69l100.28 -189.61 39.76 0 101.62 189.61 -46.28 0 -21.29 -41.52 -112.35 0 -20.66 41.52 -41.07 0zm96.46 -209.82l34.21 -62.1 37.18 0 -49.43 62.1 -21.97 0zm202.17 209.82l0 -189.61 179.2 0 0 33.07 -138 0 0 49.97 74.49 0 0 34.54 -74.49 0 0 72.03 -41.2 0zm230.27 0l0 -189.61 41.19 0 0 189.61 -41.19 0zm280.39 -155.8l-111.21 0 0 120.15 111.21 0 0 -40.78 41.2 9.19 0 22.4c0,17.34 -3.05,29.15 -9.16,35.41 -6.06,6.31 -17.61,9.43 -34.73,9.43l-105.83 0c-17.22,0 -28.83,-3.12 -34.84,-9.43 -6,-6.25 -9.03,-18.07 -9.03,-35.41l0 -100c0,-17.16 3.03,-28.97 9.03,-35.28 6.01,-6.3 17.63,-9.49 34.84,-9.49l105.83 0c17.12,0 28.67,3.19 34.73,9.49 6.12,6.31 9.16,18.12 9.16,35.28l0 18.01 -41.2 7.04 0 -36.01zm122.51 10.96c0,-17.21 3.03,-28.97 9.03,-35.28 6,-6.3 17.63,-9.49 34.84,-9.49l130.38 0c17.27,0 28.94,3.19 34.96,9.49 6.05,6.31 9.08,18.07 9.08,35.28l0 100c0,17.34 -3.03,29.15 -9.08,35.41 -6.01,6.31 -17.69,9.43 -34.96,9.43l-130.38 0c-17.22,0 -28.85,-3.12 -34.84,-9.43 -6,-6.25 -9.03,-18.07 -9.03,-35.41l0 -100zm41.19 109.19l135.93 0 0 -120.15 -135.93 0 0 120.15zm945.81 -121.25l-92.62 0 0 50.33 92.62 0c7.15,0 12.02,-1.1 14.64,-3.3 2.64,-2.21 3.95,-6.2 3.95,-11.83l0 -20.26c0,-5.52 -1.3,-9.37 -3.95,-11.63 -2.62,-2.21 -7.48,-3.31 -14.64,-3.31zm-133.14 156.9l0 -189.61 151.39 0c14.13,0 24.37,2.89 30.66,8.7 6.36,5.76 9.49,15.06 9.49,27.99l0 42.37c0,12.87 -3.13,22.18 -9.49,28 -6.29,5.83 -16.53,8.69 -30.66,8.69l-110.87 0 0 73.87 -40.52 0zm290.3 -189.61l0 153.96 117.4 0 0 -153.96 41.19 0 0 144.84c0,17.27 -3.03,29.09 -9.1,35.34 -6,6.31 -17.69,9.43 -34.96,9.43l-111.85 0c-17.1,0 -28.66,-3.12 -34.72,-9.43 -6.13,-6.25 -9.16,-18.07 -9.16,-35.34l0 -144.84 41.19 0zm383.76 30.87l-93.99 0 0 45.2 93.99 0c7.15,0 12.08,-1.04 14.81,-3.06 2.76,-2.03 4.14,-5.58 4.14,-10.59l0 -17.89c0,-4.96 -1.38,-8.45 -4.14,-10.53 -2.72,-2.08 -7.66,-3.12 -14.81,-3.12zm0 76.42l-93.99 0 0 48.15 93.99 0c7.83,0 13.09,-1.24 15.85,-3.75 2.74,-2.5 4.12,-6.92 4.12,-13.29l0 -14.26c0,-6.37 -1.38,-10.72 -4.12,-13.17 -2.76,-2.45 -8.02,-3.68 -15.85,-3.68zm-134.51 82.32l0 -189.61 151.79 0c13.95,0 24.08,2.93 30.38,8.82 6.24,5.81 9.38,15.19 9.38,27.98l0 23.1c0,9.12 -2.64,16.41 -7.89,21.8 -5.26,5.46 -12.81,8.82 -22.65,10.16 10.18,1.41 18.07,5.33 23.62,11.64 5.56,6.31 8.3,14.58 8.3,24.74l0 24.14c0,12.61 -4.29,21.92 -12.93,28.04 -8.64,6.13 -21.68,9.19 -39.31,9.19l-140.67 0zm272.55 0l0 -189.61 41.19 0 0 153.96 132.84 0 0 35.65 -174.04 0zm234.51 0l0 -189.61 41.19 0 0 189.61 -41.19 0zm280.38 -155.8l-111.21 0 0 120.15 111.21 0 0 -40.78 41.2 9.19 0 22.4c0,17.34 -3.05,29.15 -9.16,35.41 -6.06,6.31 -17.61,9.43 -34.72,9.43l-105.84 0c-17.22,0 -28.83,-3.12 -34.84,-9.43 -6,-6.25 -9.03,-18.07 -9.03,-35.41l0 -100c0,-17.16 3.03,-28.97 9.03,-35.28 6.01,-6.3 17.63,-9.49 34.84,-9.49l105.84 0c17.11,0 28.66,3.19 34.72,9.49 6.12,6.31 9.16,18.12 9.16,35.28l0 18.01 -41.2 7.04 0 -36.01zm126.28 155.8l0 -189.61 41.19 0 0 189.61 -41.19 0zm172.94 -35.65l53.33 0c28.36,0 48.5,-4.72 60.35,-14.21 11.84,-9.43 17.79,-25.05 17.79,-46.85 0,-19.42 -4.92,-34.11 -14.76,-44.1 -9.85,-9.98 -24.37,-15 -43.6,-15l-73.11 0 0 120.15zm-41.19 35.65l0 -189.61 113.98 0c32.55,0 57.54,8.15 74.99,24.38 17.51,16.28 26.25,39.38 26.25,69.26 0,17.71 -3.42,33.63 -10.24,47.84 -6.8,14.14 -16.41,25.29 -28.82,33.44 -7.73,5.14 -17.29,8.87 -28.72,11.2 -11.49,2.32 -26.16,3.49 -44.05,3.49l-103.39 0zm330.1 -75.69l77.69 0 -38.28 -77.17 -39.42 77.17zm-79.28 75.69l100.28 -189.61 39.76 0 101.61 189.61 -46.28 0 -21.28 -41.52 -112.37 0 -20.66 41.52 -41.06 0zm339.82 -35.65l53.32 0c28.37,0 48.52,-4.72 60.36,-14.21 11.84,-9.43 17.79,-25.05 17.79,-46.85 0,-19.42 -4.91,-34.11 -14.76,-44.1 -9.83,-9.98 -24.36,-15 -43.59,-15l-73.11 0 0 120.15zm-41.19 35.65l0 -189.61 113.97 0c32.55,0 57.56,8.15 75,24.38 17.51,16.28 26.25,39.38 26.25,69.26 0,17.71 -3.42,33.63 -10.24,47.84 -6.8,14.14 -16.41,25.29 -28.82,33.44 -7.73,5.14 -17.28,8.87 -28.72,11.2 -11.51,2.32 -26.16,3.49 -44.06,3.49l-103.38 0zm-2530.01 -33.07l82.15 0 16.42 -15.06 -53.16 -47.34 -45.41 29.95 0 32.46zm9.72 33.07c-17.27,0 -28.99,-3.18 -35.19,-9.49 -6.12,-6.37 -9.21,-18.2 -9.21,-35.4l0 -12.38c0,-8.25 1.32,-14.69 3.96,-19.41 2.63,-4.65 8.64,-9.98 18.01,-15.92l35.98 -23.16c-5.2,-4.77 -9.02,-9.36 -11.43,-13.84 -2.41,-4.47 -3.61,-9.43 -3.61,-14.76l0 -10.65c0,-12.56 3.26,-21.45 9.73,-26.71 6.47,-5.26 17.85,-7.89 34.15,-7.89l35.7 0c17.06,0 28.66,2.76 34.8,8.26 6.12,5.52 9.21,15.5 9.21,29.95l0 11.52 -31.93 5.75 0 -25.35 -58.02 0 0 13.6 83.43 74.22 41.07 -36.75 23.45 21.69 -40.9 36.26 56 50.46 -53.94 0 -29.19 -26.4 -15.72 15.06c-4.69,4.36 -9.16,7.28 -13.33,8.88 -4.18,1.66 -10.88,2.45 -20.02,2.45l-62.99 0z"/>
  </g>
 </g>
</svg>
